<?xml version="1.0" encoding="utf-8"?>
<!-- Generator: Adobe Illustrator 16.0.0, SVG Export Plug-In . SVG Version: 6.00 Build 0)  -->
<!DOCTYPE svg PUBLIC "-//W3C//DTD SVG 1.1//EN" "http://www.w3.org/Graphics/SVG/1.1/DTD/svg11.dtd">
<svg version="1.1" id="Layer_1" xmlns="http://www.w3.org/2000/svg" xmlns:xlink="http://www.w3.org/1999/xlink" x="0px" y="0px"
	 width="128px" height="128px" viewBox="0 0 128 128" enable-background="new 0 0 128 128" xml:space="preserve">
<g id="Layer_2_1_" display="none">
	<g id="Layer_2" display="inline">
		
			<image overflow="visible" enable-background="new    " width="2048" height="1366" xlink:href="../../../../../../../../../Pictures/me.jpg"  transform="matrix(0.0921 0 0 0.0921 0 0)">
		</image>
	</g>
</g>
<g id="Head">
	<g id="base_head">
		<path fill="#CC965C" d="M84,97c-5.059,4.839-21.158,7.243-27.667,4.667c-4.624-1.831-15.548-5.576-17-10.333
			c-1.208-3.959-13.951-12.003-15.083-13.459c-4.667-6-6.625-10.871-6.625-32.5c0-20.704,19.041-25.603,28.25-27.625
			c13.667-3,26.822-1.198,31.625,7c2.709,4.622,6.225,14.627,4.75,22.625c-0.875,4.75,3,11.25,3.5,17.375
			c0.275,5.014-0.251,11.029,0.172,18.875C86.292,90.507,87.184,93.955,84,97z"/>
	</g>
	<g id="nose_ears">
		<path d="M72.084,70.382c0.25-1.258,1.618-1.237,2.291-1.257c0.395-0.012,1.484,0.105,1.492,0.5c0.027,1.299-1.372,1.477-1.996,1.5
			C72.584,71.173,71.889,71.366,72.084,70.382z"/>
		<path fill="none" stroke="#35240B" stroke-width="0.7087" stroke-miterlimit="10" d="M70.266,65.532c0,0-1.724,0.933-2.182,2.517
			c-0.165,0.569,0.137,1.852,0.402,2.337c0.563,1.024,2.139,1.204,2.139,1.204"/>
		<path fill="none" stroke="#35240B" stroke-width="0.7087" stroke-miterlimit="10" d="M77.292,70.923c0,0,3.083-1.583,3.25-4.625
			c0.156-2.84-7-9.211-7-12.875"/>
	</g>
</g>
<g id="Hair">
	<path id="top" fill="#442D04" d="M33.125,81.125L37,92l-5,1.125c0,0-15.157-17.37-17.625-24.5c-4.5-13-6.102-21.142-0.75-33.875
		c3.625-8.625,13.559-15.824,19.563-19.313c4.21-2.446,6.518-4.093,17.188-5.063c8.25-0.75,16,2.399,20.625,5
		c6,3.375,10.862,11.553,12.25,16.5C83.801,33.839,82.5,40,82.5,40l-0.75,0.875l-2.875-3.125L75,40.25c0,0-2.253-12.168-5.5-12.75
		c-3.285-0.588,1.75,4.5-12.653,11.271c-2.72,1.279,11.278-7.396,7.903-12.021c-1.406-1.927-8.563-1.197-9.5-0.875
		c-4.706,1.618-11.5,7.125-14.625,13.5c-0.971,1.981,0.943,6.675,0.375,8.807c-1.25,4.693-6.375,10.693-6.375,10.693L32.5,69.25
		c0,0-7.053-7.825-9.375-6.346c-5.25,3.346-0.505,9.963,1.25,12.596C27.875,80.75,33.125,81.125,33.125,81.125z"/>
	<g id="beard">
		<path fill="#442D04" d="M36.625,61c0,0,4.577,21.589,8.75,27.125c2.29,3.038,9.079,7.121,12.625,8.5
			c3.328,1.295,10.566,2.434,14.125,2.125c3.643-0.314,13.186-5.126,13.186-5.126l1.015-1.374c0,0-0.179,4.046-3.073,7.125
			c-2.341,2.486-7.311,4.092-8.75,4.375c-1.57,0.309-8.625,1.75-17.5,0.125C51.436,102.855,42.5,100,38.625,91.25
			c-2.965-6.693-7.375-28.346-7.375-28.346"/>
		<polygon fill="#442D04" points="49.625,55.625 55.375,50.75 62.5,48.182 67.5,50.375 65.25,51.75 58.625,51.75 		"/>
		<polygon fill="#442D04" points="78.625,43.875 80.625,43.875 83.25,45.438 80.125,45.563 77,47.25 		"/>
	</g>
</g>
<g id="Glasses">
	<g id="frames">
		<path fill="#050505" d="M22,64l1.654-1.915l24.096-4.859c0,0,2.692-1.153,5.563-2.226c2.997-1.12,10.231-2.328,13.43-2.396
			c1.229-0.026,2.603,0.334,3.694,0.209c0.869-0.099,2.582-0.454,3.438-0.625c0.781-0.156,1.129-0.665,2.25-1.25
			c2.295-1.198,7.227-2.69,9.813-2.75c1.188-0.027,4,0.063,4,0.063l0.438,2.688l-0.625,1c0,0-0.063,3.595-0.458,5.255
			C88.75,59.474,81.25,61.75,77.5,60c-1.535-0.716-2.934-6.107-3.375-6.031c-2.396,0.413-0.616,0.109-2.813,0.469
			c-0.498,0.082,0.625,3.25-1.438,7.563C68.773,64.303,54,67.5,52.587,65.648C51.651,64.423,49.232,60,49.232,60l-24.42,3.437"/>
	</g>
	<g id="lenses">
		<path fill="#038DFF" d="M51,57.563c2.063-3.079,17.027-5.035,18.313-3.75c1.438,1.438,0.978,5.875,0.375,7.375
			c-0.688,1.717-12.938,5.5-16.125,4C51.743,64.331,49.977,59.09,51,57.563z"/>
		<path fill="#038DFF" d="M76.125,52.438c1.625-2.625,10.459-4.134,11.938-3.063c1.438,1.042,1.201,6.691,1,7.375
			c-0.313,1.063-5.938,3.938-10,3.139C77.089,59.501,75.157,54,76.125,52.438z"/>
	</g>
</g>
<g id="ear">
	<path fill="none" stroke="#000000" stroke-miterlimit="10" d="M30.25,66.375c0-1.997-5.66-5.385-8.25-2.375
		c-4.625,5.375,4.062,12.947,6.25,14.375c1.396,0.911,5.029,2.286,6.5,1.5c0.715-0.383,0.875-2.313,0.875-3.125"/>
	<path d="M31.375,69.875c0.478-1.034-3.976-0.3-4.5,0.712c-0.433,0.836,0.082,3.156,0.875,3.663c0.764,0.488,1.601-1.5,3.625,0
		C32.253,74.9,29.875,73.125,31.375,69.875z"/>
	<path fill="none" stroke="#000000" stroke-miterlimit="10" d="M26.875,67.875c-6.212-3.5-3.75,3.582-0.625,6.375"/>
</g>
</svg>
