<?xml version="1.0" encoding="utf-8"?>
<!-- Generator: Adobe Illustrator 16.0.0, SVG Export Plug-In . SVG Version: 6.00 Build 0)  -->
<!DOCTYPE svg PUBLIC "-//W3C//DTD SVG 1.1//EN" "http://www.w3.org/Graphics/SVG/1.1/DTD/svg11.dtd">
<svg version="1.1" id="Layer_1" xmlns="http://www.w3.org/2000/svg" xmlns:xlink="http://www.w3.org/1999/xlink" x="0px" y="0px"
	 width="128px" height="128px" viewBox="0 0 128 128" enable-background="new 0 0 128 128" xml:space="preserve">
<g>
	<path fill-rule="evenodd" clip-rule="evenodd" fill="#A6CE38" d="M16.722,88.416L8.586,9.556c8.541,0.257,19.589-3.054,23.93,5.48
		c6.194,12.074,4.924,27.628,5.753,38.046L16.722,88.416z"/>
</g>
<g>
	<path fill-rule="evenodd" clip-rule="evenodd" fill="#A6CE38" d="M29.888,88.416l-8.135-78.86c8.541,0.257,19.588-3.054,23.93,5.48
		c6.195,12.074,4.925,27.628,5.754,38.046L29.888,88.416z"/>
</g>
<g>
	<path fill-rule="evenodd" clip-rule="evenodd" fill="#A6CE38" d="M41.813,88.416l-8.136-78.86c8.542,0.257,19.588-3.054,23.93,5.48
		c6.196,12.074,4.925,27.628,5.754,38.046L41.813,88.416z"/>
</g>
<path fill-rule="evenodd" clip-rule="evenodd" fill="#4DC2BF" d="M85.066,53.082c-0.829-10.418,0.441-25.972-5.754-38.046
	c-4.342-8.534-15.389-5.223-23.93-5.48l8.135,78.86l4.015,32.908c0,0.003,12.961-21.953,12.961-21.953l-4.23-31.855L85.066,53.082z"
	/>
<path fill-rule="evenodd" clip-rule="evenodd" fill="#CC3B3A" d="M108.024,53.082c-0.827-10.418,0.443-25.972-5.753-38.046
	c-4.342-8.534-15.389-5.223-23.93-5.48l8.135,78.86h13.062l20.642-35.345L108.024,53.082z"/>
<line fill="none" stroke="#000000" stroke-width="0.7087" stroke-miterlimit="10" x1="29.888" y1="88.416" x2="25.798" y2="48.774"/>
<line fill="none" stroke="#000000" stroke-width="0.7087" stroke-miterlimit="10" x1="16.693" y1="88.416" x2="8.586" y2="9.556"/>
<line fill="none" stroke="#000000" stroke-width="0.7087" stroke-miterlimit="10" x1="41.786" y1="88.148" x2="37.696" y2="48.507"/>
<line fill="none" stroke="#000000" stroke-width="0.7087" stroke-miterlimit="10" x1="55.383" y1="9.556" x2="67.533" y2="121.324"/>
<line fill="none" stroke="#000000" stroke-width="0.7087" stroke-miterlimit="10" x1="67.533" y1="121.324" x2="80.494" y2="99.371"/>
<line fill="none" stroke="#000000" stroke-width="0.7087" stroke-miterlimit="10" x1="78.342" y1="9.556" x2="86.477" y2="88.416"/>
<line fill="none" stroke="#000000" stroke-width="0.7087" stroke-miterlimit="10" x1="86.477" y1="88.416" x2="99.538" y2="88.416"/>
<line fill="none" stroke="#000000" stroke-width="0.7087" stroke-miterlimit="10" x1="99.538" y1="88.416" x2="120.18" y2="53.071"/>
</svg>
