<?xml version="1.0" encoding="utf-8"?>
<!-- Generator: Adobe Illustrator 16.0.0, SVG Export Plug-In . SVG Version: 6.00 Build 0)  -->
<!DOCTYPE svg PUBLIC "-//W3C//DTD SVG 1.1//EN" "http://www.w3.org/Graphics/SVG/1.1/DTD/svg11.dtd">
<svg version="1.1" xmlns="http://www.w3.org/2000/svg" xmlns:xlink="http://www.w3.org/1999/xlink" x="0px" y="0px" width="128px"
	 height="128px" viewBox="0 0 128 128" enable-background="new 0 0 128 128" xml:space="preserve">
<g id="Layer_2">
	<g>
		<g>
			<path fill="#FFFFFF" stroke="#000000" stroke-width="0.7087" stroke-miterlimit="10" d="M119.667,64
				c0-30.77-24.898-55.667-55.667-55.667C33.23,8.333,8.333,33.23,8.333,64c0,30.769,24.897,55.667,55.667,55.667
				C94.769,119.667,119.667,94.769,119.667,64z"/>
			<path fill="#FFFFFF" stroke="#000000" stroke-width="0.7087" stroke-miterlimit="10" d="M64,108.521
				c-24.626,0-44.522-19.896-44.522-44.521S39.374,19.478,64,19.478S108.522,39.374,108.522,64S88.626,108.521,64,108.521z"/>
			<path fill="#FFFFFF" stroke="#000000" stroke-width="0.7087" stroke-miterlimit="10" d="M97.405,64
				c0-18.456-14.95-33.406-33.405-33.406c-18.456,0-33.406,14.95-33.406,33.406S45.544,97.406,64,97.406
				C82.455,97.406,97.405,82.456,97.405,64z"/>
			<path fill="#FFFFFF" stroke="#000000" stroke-width="0.7087" stroke-miterlimit="10" d="M64,86.261
				c-12.313,0-22.262-9.947-22.262-22.261S51.687,41.738,64,41.738c12.313,0,22.262,9.948,22.262,22.262S76.313,86.261,64,86.261z"
				/>
			<path fill="#FFFFFF" stroke="#000000" stroke-width="0.7087" stroke-miterlimit="10" d="M75.144,64
				c0-6.143-5.001-11.145-11.144-11.145c-6.143,0-11.145,5.001-11.145,11.145c0,6.143,5.001,11.144,11.145,11.144
				C70.143,75.144,75.144,70.143,75.144,64z"/>
		</g>
		<g>
			<line fill="#FFFFFF" stroke="#000000" stroke-width="0.7087" stroke-miterlimit="10" x1="64" y1="64" x2="64" y2="119.667"/>
			
				<line fill="#FFFFFF" stroke="#000000" stroke-width="0.7087" stroke-miterlimit="10" x1="64" y1="64" x2="103.358" y2="103.358"/>
			<line fill="#FFFFFF" stroke="#000000" stroke-width="0.7087" stroke-miterlimit="10" x1="64" y1="64" x2="119.667" y2="64"/>
			<line fill="#FFFFFF" stroke="#000000" stroke-width="0.7087" stroke-miterlimit="10" x1="64" y1="64" x2="103.358" y2="24.642"/>
			<line fill="#FFFFFF" stroke="#000000" stroke-width="0.7087" stroke-miterlimit="10" x1="64" y1="64" x2="64" y2="8.333"/>
			<line fill="#FFFFFF" stroke="#000000" stroke-width="0.7087" stroke-miterlimit="10" x1="64" y1="64" x2="24.642" y2="24.642"/>
			<line fill="#FFFFFF" stroke="#000000" stroke-width="0.7087" stroke-miterlimit="10" x1="64" y1="64" x2="8.333" y2="64"/>
			<line fill="#FFFFFF" stroke="#000000" stroke-width="0.7087" stroke-miterlimit="10" x1="64" y1="64" x2="24.642" y2="103.358"/>
		</g>
	</g>
</g>
<g id="Layer_1">
	<path fill="none" stroke="#000000" stroke-width="0.2835" stroke-miterlimit="10" d="M64,64"/>
	<path fill="none" stroke="#000000" stroke-width="0.2835" stroke-miterlimit="10" d="M52.898,14.47"/>
	<path fill="none" stroke="#000000" stroke-width="0.2835" stroke-miterlimit="10" d="M64,64"/>
	<path fill="none" stroke="#000000" stroke-width="0.2835" stroke-miterlimit="10" d="M31.573,24.964"/>
	<path opacity="0.9" fill="#FFDA66" stroke="#020202" stroke-width="0.2835" stroke-miterlimit="10" d="M24.562,45.125
		c-2.74,5.714-4.274,12.116-4.274,18.876c0,2.667,0.239,5.278,0.696,7.813L64,64L24.562,45.125z"/>
	<path opacity="0.9" fill="#8DD1C3" stroke="#020202" stroke-width="0.2835" stroke-miterlimit="10" d="M43.377,79.26
		c-0.913-1.273-1.715-2.636-2.391-4.071L64,64L43.377,79.26z"/>
	<path opacity="0.9" fill="#B9DCA4" stroke="#050606" stroke-width="0.2835" stroke-miterlimit="10" d="M70.309,95.223
		c-2.114,0.461-4.308,0.704-6.557,0.704c-2.306,0-4.554-0.256-6.718-0.74L64,64L70.309,95.223z"/>
	<path fill="none" stroke="#000000" stroke-width="0.2835" stroke-miterlimit="10" d="M60.405,49.795"/>
	<path fill="none" stroke="#000000" stroke-width="0.2835" stroke-miterlimit="10" d="M68.794,50.445"/>
	<path fill="none" stroke="#000000" stroke-width="0.2835" stroke-miterlimit="10" d="M75.139,72.92"/>
	<path fill="none" stroke="#000000" stroke-width="0.2835" stroke-miterlimit="10" d="M77.301,59.735"/>
	<path fill="none" stroke="#000000" stroke-width="0.2835" stroke-miterlimit="10" d="M73.029,53.07"/>
	<path opacity="0.9" fill="#DFE77E" stroke="#000000" stroke-width="0.2835" stroke-miterlimit="10" d="M88.436,33.955
		c-3.134-2.557-6.67-4.638-10.5-6.132L64,64L88.436,33.955C88.775,34.232,88.106,33.667,88.436,33.955"/>
	<path opacity="0.9" fill="#F9A266" stroke="#000000" stroke-width="0.2835" stroke-miterlimit="10" d="M104.234,94.934
		c-2.43,3.154-5.221,6.016-8.313,8.521L64,64L104.234,94.934C104.424,94.688,104.049,95.184,104.234,94.934"/>
	<path opacity="0.9" fill="#F9A368" stroke="#020202" stroke-width="0.2835" stroke-miterlimit="10" d="M52.898,14.469
		c-7.981,1.781-15.253,5.441-21.327,10.492L64,64L52.898,14.469z"/>
	<path fill="none" stroke="#000000" stroke-miterlimit="10" d="M-30.833,20.343"/>
	<path opacity="0.9" fill="#354E86" stroke="#000000" stroke-width="0.2835" stroke-miterlimit="10" d="M77.301,59.735L64,64
		l13.964,0.162C77.964,62.619,77.731,61.132,77.301,59.735"/>
</g>
</svg>
