<?xml version="1.0" encoding="utf-8"?>
<!-- Generator: Adobe Illustrator 16.0.0, SVG Export Plug-In . SVG Version: 6.00 Build 0)  -->
<!DOCTYPE svg PUBLIC "-//W3C//DTD SVG 1.1//EN" "http://www.w3.org/Graphics/SVG/1.1/DTD/svg11.dtd">
<svg version="1.1" xmlns="http://www.w3.org/2000/svg" xmlns:xlink="http://www.w3.org/1999/xlink" x="0px" y="0px" width="128px"
	 height="128px" viewBox="0 0 128 128" enable-background="new 0 0 128 128" xml:space="preserve">
<g id="Layer_2">
	
		<ellipse fill="#D3E6B1" stroke="#000000" stroke-width="0.2835" stroke-miterlimit="10" cx="64.239" cy="64.121" rx="51.004" ry="51.02"/>
	<circle fill="#9DCB3B" stroke="#000000" stroke-width="0.2835" stroke-miterlimit="10" cx="64.238" cy="64.121" r="31"/>
	<g>
		<path d="M42.317,86.041c0,0,0.131-0.211,0.378-0.606c0.258-0.385,0.612-0.973,1.109-1.674c0.968-1.43,2.399-3.424,4.207-5.726
			c1.805-2.306,3.983-4.922,6.405-7.638c1.209-1.359,2.476-2.747,3.791-4.13c1.304-1.393,2.668-2.769,4.026-4.15
			c1.381-1.359,2.754-2.726,4.148-4.029c1.378-1.319,2.771-2.581,4.127-3.793c2.715-2.423,5.331-4.602,7.638-6.405
			c2.303-1.807,4.298-3.237,5.729-4.204c1.422-0.975,2.282-1.485,2.282-1.485s-0.51,0.86-1.485,2.283
			c-0.967,1.431-2.396,3.426-4.203,5.729c-1.805,2.306-3.982,4.923-6.405,7.637c-1.213,1.356-2.475,2.749-3.794,4.127
			c-1.304,1.394-2.67,2.767-4.029,4.148c-1.381,1.358-2.758,2.722-4.151,4.026c-1.382,1.314-2.77,2.581-4.129,3.791
			c-2.716,2.422-5.333,4.6-7.638,6.404c-2.302,1.808-4.297,3.239-5.726,4.207c-0.701,0.498-1.289,0.852-1.673,1.109
			C42.528,85.909,42.317,86.041,42.317,86.041z"/>
	</g>
	<g>
		<path d="M42.317,42.201c0,0,0.211,0.131,0.607,0.378c0.384,0.257,0.972,0.612,1.673,1.109c1.429,0.968,3.424,2.399,5.726,4.207
			c2.305,1.805,4.922,3.983,7.638,6.405c1.36,1.209,2.747,2.476,4.129,3.791c1.394,1.304,2.77,2.667,4.151,4.026
			c1.359,1.381,2.726,2.754,4.029,4.147c1.319,1.378,2.581,2.771,3.794,4.127c2.423,2.715,4.601,5.332,6.405,7.638
			c1.807,2.304,3.236,4.298,4.203,5.729c0.976,1.422,1.485,2.282,1.485,2.282s-0.86-0.51-2.282-1.485
			c-1.432-0.966-3.427-2.396-5.729-4.203c-2.307-1.804-4.923-3.982-7.638-6.405c-1.356-1.213-2.749-2.475-4.127-3.793
			c-1.394-1.304-2.768-2.671-4.148-4.029c-1.358-1.382-2.723-2.758-4.026-4.151c-1.315-1.382-2.582-2.77-3.791-4.129
			c-2.422-2.715-4.601-5.332-6.405-7.637c-1.808-2.303-3.239-4.297-4.207-5.726c-0.498-0.701-0.852-1.289-1.109-1.673
			C42.449,42.412,42.317,42.201,42.317,42.201z"/>
	</g>
</g>
<g id="Layer_1">
	<g display="none">
		<g display="inline">
			<path fill="none" stroke="#000000" stroke-width="0.2835" stroke-miterlimit="10" d="M86.329,108.976
				c-24.793,12.21-54.736,2.029-66.946-22.764c-12.21-24.794-2.029-54.736,22.764-66.947c24.793-12.21,54.736-2.029,66.946,22.764
				C121.304,66.822,111.122,96.765,86.329,108.976z"/>
			<path fill="none" stroke="#000000" stroke-width="0.2835" stroke-miterlimit="10" d="M101.625,45.708
				C91.453,25.054,66.479,16.562,45.826,26.734C25.172,36.905,16.68,61.879,26.852,82.532
				c10.171,20.654,35.146,29.146,55.799,18.975C103.305,91.336,111.797,66.361,101.625,45.708z"/>
			<path fill="none" stroke="#000000" stroke-width="0.2835" stroke-miterlimit="10" d="M78.962,94.017
				c-16.536,8.145-36.476,1.363-44.62-15.173c-8.144-16.536-1.363-36.476,15.173-44.62c16.536-8.144,36.477-1.363,44.62,15.173
				C102.278,65.933,95.498,85.873,78.962,94.017z"/>
			<path fill="none" stroke="#000000" stroke-width="0.2835" stroke-miterlimit="10" d="M86.666,53.075
				C80.561,40.678,65.59,35.587,53.193,41.692C40.796,47.798,35.705,62.77,41.811,75.166c6.105,12.396,21.076,17.487,33.473,11.382
				S92.771,65.472,86.666,53.075z"/>
			<path fill="none" stroke="#000000" stroke-width="0.2835" stroke-miterlimit="10" d="M71.605,79.08
				c-8.257,4.066-18.26,0.665-22.327-7.593c-4.066-8.257-0.665-18.259,7.592-22.326c8.257-4.066,18.26-0.665,22.327,7.592
				C83.264,65.011,79.863,75.014,71.605,79.08z"/>
			<path fill="none" stroke="#000000" stroke-width="0.2835" stroke-miterlimit="10" d="M71.706,60.442
				c-2.038-4.139-7.006-5.829-11.146-3.79c-4.139,2.039-5.829,7.007-3.79,11.147c2.039,4.14,7.007,5.828,11.146,3.79
				C72.057,69.55,73.745,64.582,71.706,60.442z"/>
		</g>
		<g display="inline">
			
				<line fill="none" stroke="#000000" stroke-width="0.2835" stroke-miterlimit="10" x1="64.238" y1="64.121" x2="86.329" y2="108.976"/>
			
				<line fill="none" stroke="#000000" stroke-width="0.2835" stroke-miterlimit="10" x1="64.238" y1="64.121" x2="91.884" y2="105.777"/>
			
				<line fill="none" stroke="#000000" stroke-width="0.2835" stroke-miterlimit="10" x1="64.238" y1="64.121" x2="96.973" y2="101.91"/>
			
				<line fill="none" stroke="#000000" stroke-width="0.2835" stroke-miterlimit="10" x1="64.238" y1="64.121" x2="101.554" y2="97.396"/>
			
				<line fill="none" stroke="#000000" stroke-width="0.2835" stroke-miterlimit="10" x1="64.238" y1="64.121" x2="105.493" y2="92.354"/>
			
				<line fill="none" stroke="#000000" stroke-width="0.2835" stroke-miterlimit="10" x1="64.238" y1="64.121" x2="108.77" y2="86.849"/>
			
				<line fill="none" stroke="#000000" stroke-width="0.2835" stroke-miterlimit="10" x1="64.238" y1="64.121" x2="111.315" y2="80.967"/>
			
				<line fill="none" stroke="#000000" stroke-width="0.2835" stroke-miterlimit="10" x1="64.238" y1="64.121" x2="113.078" y2="74.819"/>
			
				<line fill="none" stroke="#000000" stroke-width="0.2835" stroke-miterlimit="10" x1="64.238" y1="64.121" x2="114.044" y2="68.493"/>
			
				<line fill="none" stroke="#000000" stroke-width="0.2835" stroke-miterlimit="10" x1="64.238" y1="64.121" x2="114.202" y2="62.074"/>
			
				<line fill="none" stroke="#000000" stroke-width="0.2835" stroke-miterlimit="10" x1="64.238" y1="64.121" x2="113.52" y2="55.715"/>
			
				<line fill="none" stroke="#000000" stroke-width="0.2835" stroke-miterlimit="10" x1="64.238" y1="64.121" x2="112.051" y2="49.472"/>
			
				<line fill="none" stroke="#000000" stroke-width="0.2835" stroke-miterlimit="10" x1="64.238" y1="64.121" x2="109.783" y2="43.486"/>
			
				<line fill="none" stroke="#000000" stroke-width="0.2835" stroke-miterlimit="10" x1="64.238" y1="64.121" x2="106.771" y2="37.812"/>
			
				<line fill="none" stroke="#000000" stroke-width="0.2835" stroke-miterlimit="10" x1="64.238" y1="64.121" x2="103.058" y2="32.592"/>
			
				<line fill="none" stroke="#000000" stroke-width="0.2835" stroke-miterlimit="10" x1="64.238" y1="64.121" x2="98.708" y2="27.904"/>
			
				<line fill="none" stroke="#000000" stroke-width="0.2835" stroke-miterlimit="10" x1="64.238" y1="64.121" x2="93.797" y2="23.791"/>
			
				<line fill="none" stroke="#000000" stroke-width="0.2835" stroke-miterlimit="10" x1="64.238" y1="64.121" x2="88.392" y2="20.33"/>
			
				<line fill="none" stroke="#000000" stroke-width="0.2835" stroke-miterlimit="10" x1="64.238" y1="64.121" x2="82.588" y2="17.609"/>
			<polyline fill="none" stroke="#000000" stroke-width="0.2835" stroke-miterlimit="10" points="72.518,31.804 80.295,34.999 
				88.461,20.471 76.508,15.65 64.238,64.121 			"/>
			
				<line fill="none" stroke="#000000" stroke-width="0.2835" stroke-miterlimit="10" x1="64.238" y1="64.121" x2="70.193" y2="14.488"/>
			
				<line fill="none" stroke="#000000" stroke-width="0.2835" stroke-miterlimit="10" x1="64.238" y1="64.121" x2="63.808" y2="14.122"/>
			
				<line fill="none" stroke="#000000" stroke-width="0.2835" stroke-miterlimit="10" x1="64.238" y1="64.121" x2="57.396" y2="14.585"/>
			
				<line fill="none" stroke="#000000" stroke-width="0.2835" stroke-miterlimit="10" x1="64.238" y1="64.121" x2="51.121" y2="15.879"/>
			
				<line fill="none" stroke="#000000" stroke-width="0.2835" stroke-miterlimit="10" x1="64.238" y1="64.121" x2="45.06" y2="17.94"/>
			
				<line fill="none" stroke="#000000" stroke-width="0.2835" stroke-miterlimit="10" x1="64.238" y1="64.121" x2="39.321" y2="20.766"/>
			
				<line fill="none" stroke="#000000" stroke-width="0.2835" stroke-miterlimit="10" x1="64.238" y1="64.121" x2="33.993" y2="24.315"/>
			
				<line fill="none" stroke="#000000" stroke-width="0.2835" stroke-miterlimit="10" x1="64.238" y1="64.121" x2="29.143" y2="28.5"/>
			
				<line fill="none" stroke="#000000" stroke-width="0.2835" stroke-miterlimit="10" x1="64.238" y1="64.121" x2="24.866" y2="33.301"/>
			
				<line fill="none" stroke="#000000" stroke-width="0.2835" stroke-miterlimit="10" x1="64.238" y1="64.121" x2="21.264" y2="38.585"/>
			
				<line fill="none" stroke="#000000" stroke-width="0.2835" stroke-miterlimit="10" x1="64.238" y1="64.121" x2="18.336" y2="44.3"/>
			
				<line fill="none" stroke="#000000" stroke-width="0.2835" stroke-miterlimit="10" x1="64.238" y1="64.121" x2="16.182" y2="50.313"/>
			
				<line fill="none" stroke="#000000" stroke-width="0.2835" stroke-miterlimit="10" x1="64.238" y1="64.121" x2="14.801" y2="56.573"/>
			
				<line fill="none" stroke="#000000" stroke-width="0.2835" stroke-miterlimit="10" x1="64.238" y1="64.121" x2="14.25" y2="62.967"/>
			
				<line fill="none" stroke="#000000" stroke-width="0.2835" stroke-miterlimit="10" x1="64.238" y1="64.121" x2="14.517" y2="69.367"/>
			
				<line fill="none" stroke="#000000" stroke-width="0.2835" stroke-miterlimit="10" x1="64.238" y1="64.121" x2="15.581" y2="75.674"/>
			
				<line fill="none" stroke="#000000" stroke-width="0.2835" stroke-miterlimit="10" x1="64.238" y1="64.121" x2="17.455" y2="81.799"/>
			
				<line fill="none" stroke="#000000" stroke-width="0.2835" stroke-miterlimit="10" x1="64.238" y1="64.121" x2="20.117" y2="87.646"/>
			
				<line fill="none" stroke="#000000" stroke-width="0.2835" stroke-miterlimit="10" x1="64.238" y1="64.121" x2="23.479" y2="93.093"/>
			
				<line fill="none" stroke="#000000" stroke-width="0.2835" stroke-miterlimit="10" x1="64.238" y1="64.121" x2="27.533" y2="98.063"/>
			
				<line fill="none" stroke="#000000" stroke-width="0.2835" stroke-miterlimit="10" x1="64.238" y1="64.121" x2="32.158" y2="102.48"/>
			
				<line fill="none" stroke="#000000" stroke-width="0.2835" stroke-miterlimit="10" x1="64.238" y1="64.121" x2="37.343" y2="106.268"/>
			
				<line fill="none" stroke="#000000" stroke-width="0.2835" stroke-miterlimit="10" x1="64.238" y1="64.121" x2="42.947" y2="109.358"/>
			
				<line fill="none" stroke="#000000" stroke-width="0.2835" stroke-miterlimit="10" x1="64.238" y1="64.121" x2="48.895" y2="111.709"/>
			
				<line fill="none" stroke="#000000" stroke-width="0.2835" stroke-miterlimit="10" x1="64.238" y1="64.121" x2="55.109" y2="113.275"/>
			
				<line fill="none" stroke="#000000" stroke-width="0.2835" stroke-miterlimit="10" x1="64.238" y1="64.121" x2="61.47" y2="114.034"/>
			
				<line fill="none" stroke="#000000" stroke-width="0.2835" stroke-miterlimit="10" x1="64.238" y1="64.121" x2="67.868" y2="113.985"/>
			
				<line fill="none" stroke="#000000" stroke-width="0.2835" stroke-miterlimit="10" x1="64.238" y1="64.121" x2="74.238" y2="113.106"/>
			
				<line fill="none" stroke="#000000" stroke-width="0.2835" stroke-miterlimit="10" x1="64.238" y1="64.121" x2="80.407" y2="111.43"/>
		</g>
	</g>
	<polyline fill="none" stroke="#000000" stroke-width="0.7087" stroke-miterlimit="10" points="34.069,24.467 25.037,33.343 
		31.433,38.446 35.027,34.446 31.555,38.694 38.036,43.616 44.108,37.452 	"/>
	<polyline fill="none" stroke="#000000" stroke-width="0.7087" stroke-miterlimit="10" points="51.328,33.331 45.061,17.939 
		39.322,20.766 45.061,17.939 51.122,15.88 	"/>
	<polyline fill="none" stroke="#000000" stroke-width="0.7087" stroke-miterlimit="10" points="57.332,14.617 59.563,30.955 
		63.781,22.514 68.285,30.948 70.194,14.487 	"/>
	<path fill="#00AEEF" stroke="#000000" stroke-width="0.2835" stroke-miterlimit="10" d="M72.518,31.804"/>
	<polyline fill="none" stroke="#000000" stroke-width="0.7087" stroke-miterlimit="10" points="32.804,54.821 16.753,50.134 
		35.654,47.018 21.957,38.653 	"/>
	<polyline fill="none" stroke="#000000" stroke-width="0.7087" stroke-miterlimit="10" points="92.395,46.458 99.477,42.167 
		106.749,37.823 	"/>
	<polyline fill="none" stroke="#000000" stroke-width="0.7087" stroke-miterlimit="10" points="95.965,54.417 102.22,46.913 
		99.477,42.167 	"/>
	
		<line fill="none" stroke="#000000" stroke-width="0.7087" stroke-miterlimit="10" x1="112.051" y1="49.472" x2="102.22" y2="46.913"/>
	<polyline fill="none" stroke="#000000" stroke-width="0.7087" stroke-miterlimit="10" points="83.972,37.34 88.909,30.443 
		94.057,23.663 103.058,32.592 96.739,38.047 89.214,30.606 90.382,43.079 	"/>
	<polyline fill="none" stroke="#000000" stroke-width="0.7087" stroke-miterlimit="10" points="72.404,31.86 76.587,15.813 
		88.675,20.906 80.295,34.999 72.404,31.86 	"/>
	<polygon fill="none" stroke="#000000" stroke-width="0.7087" stroke-miterlimit="10" points="27.534,83.301 27.534,98.063 
		37.343,96.063 39.91,86.739 	"/>
	<path fill="none" stroke="#000000" stroke-width="0.2835" stroke-miterlimit="10" d="M37.343,96.463"/>
	
		<line fill="none" stroke="#000000" stroke-width="0.7087" stroke-miterlimit="10" x1="27.534" y1="83.301" x2="37.343" y2="96.063"/>
	
		<line fill="none" stroke="#000000" stroke-width="0.7087" stroke-miterlimit="10" x1="27.534" y1="98.063" x2="39.91" y2="86.739"/>
	<polyline fill="none" stroke="#000000" stroke-width="0.7087" stroke-miterlimit="10" points="37.188,95.86 51.328,103.481 
		64.46,105.398 74.123,112.417 70.8,96.549 64.077,105.398 80.568,101.951 70.8,96.549 	"/>
	<polyline fill="none" stroke="#000000" stroke-width="0.7087" stroke-miterlimit="10" points="74.123,112.417 80.568,101.951 
		95.375,91.813 91.884,83.016 103.563,77.938 108.77,86.849 95.375,91.813 103.563,77.938 	"/>
	<g id="Nodes">
		<circle fill="#76C043" stroke="#000000" stroke-width="0.2835" stroke-miterlimit="10" cx="16.182" cy="50.314" r="1"/>
		<circle fill="#76C043" stroke="#000000" stroke-width="0.2835" stroke-miterlimit="10" cx="32.145" cy="54.821" r="1"/>
		<circle fill="#76C043" stroke="#000000" stroke-width="0.2835" stroke-miterlimit="10" cx="35.654" cy="47.018" r="1"/>
		<circle fill="#76C043" stroke="#000000" stroke-width="0.2835" stroke-miterlimit="10" cx="21.297" cy="38.653" r="1"/>
		<circle fill="#76C043" stroke="#000000" stroke-width="0.2835" stroke-miterlimit="10" cx="38.036" cy="43.616" r="1"/>
		<circle fill="#76C043" stroke="#000000" stroke-width="0.2835" stroke-miterlimit="10" cx="25.036" cy="33.343" r="1"/>
		<circle fill="#76C043" stroke="#000000" stroke-width="0.2835" stroke-miterlimit="10" cx="44.108" cy="37.451" r="1"/>
		<circle fill="#76C043" stroke="#000000" stroke-width="0.2835" stroke-miterlimit="10" cx="35.027" cy="34.446" r="1"/>
		<circle fill="#76C043" stroke="#000000" stroke-width="0.2835" stroke-miterlimit="10" cx="34.069" cy="24.468" r="1"/>
		<circle fill="#76C043" stroke="#000000" stroke-width="0.2835" stroke-miterlimit="10" cx="51.328" cy="33.331" r="1"/>
		<circle fill="#76C043" stroke="#000000" stroke-width="0.2835" stroke-miterlimit="10" cx="45.059" cy="17.939" r="1"/>
		<circle fill="#76C043" stroke="#000000" stroke-width="0.2835" stroke-miterlimit="10" cx="51.121" cy="15.88" r="1"/>
		<circle fill="#76C043" stroke="#000000" stroke-width="0.2835" stroke-miterlimit="10" cx="39.321" cy="20.766" r="1"/>
		<circle fill="#76C043" stroke="#000000" stroke-width="0.2835" stroke-miterlimit="10" cx="57.331" cy="14.617" r="1"/>
		<circle fill="#76C043" stroke="#000000" stroke-width="0.2835" stroke-miterlimit="10" cx="59.562" cy="30.955" r="1"/>
		<circle fill="#76C043" stroke="#000000" stroke-width="0.2835" stroke-miterlimit="10" cx="63.781" cy="22.514" r="1"/>
		<circle fill="#76C043" stroke="#000000" stroke-width="0.2835" stroke-miterlimit="10" cx="68.286" cy="30.948" r="1"/>
		<circle fill="#76C043" stroke="#000000" stroke-width="0.2835" stroke-miterlimit="10" cx="70.193" cy="14.488" r="1"/>
		<circle fill="#76C043" stroke="#000000" stroke-width="0.2835" stroke-miterlimit="10" cx="31.432" cy="38.446" r="1"/>
		<circle fill="#76C043" stroke="#000000" stroke-width="0.2835" stroke-miterlimit="10" cx="76.588" cy="15.813" r="0.999"/>
		<circle fill="#76C043" stroke="#000000" stroke-width="0.2835" stroke-miterlimit="10" cx="72.516" cy="31.805" r="1"/>
		<circle fill="#76C043" stroke="#000000" stroke-width="0.2835" stroke-miterlimit="10" cx="88.461" cy="20.471" r="1"/>
		<circle fill="#76C043" stroke="#000000" stroke-width="0.2835" stroke-miterlimit="10" cx="80.294" cy="34.999" r="1"/>
		<circle fill="#76C043" stroke="#000000" stroke-width="0.2835" stroke-miterlimit="10" cx="93.797" cy="23.791" r="1"/>
		<circle fill="#76C043" stroke="#000000" stroke-width="0.2835" stroke-miterlimit="10" cx="83.971" cy="37.34" r="1"/>
		<circle fill="#76C043" stroke="#000000" stroke-width="0.2835" stroke-miterlimit="10" cx="103.057" cy="32.592" r="1"/>
		<circle fill="#76C043" stroke="#000000" stroke-width="0.2835" stroke-miterlimit="10" cx="90.088" cy="43.224" r="1"/>
		<circle fill="#76C043" stroke="#000000" stroke-width="0.2835" stroke-miterlimit="10" cx="96.738" cy="38.048" r="1"/>
		<circle fill="#76C043" stroke="#000000" stroke-width="0.2835" stroke-miterlimit="10" cx="88.909" cy="30.442" r="0.999"/>
		<circle fill="#76C043" stroke="#000000" stroke-width="0.2835" stroke-miterlimit="10" cx="92.394" cy="46.458" r="1"/>
		<circle fill="#76C043" stroke="#000000" stroke-width="0.2835" stroke-miterlimit="10" cx="99.477" cy="42.168" r="1"/>
		<circle fill="#76C043" stroke="#000000" stroke-width="0.2835" stroke-miterlimit="10" cx="106.749" cy="37.823" r="1"/>
		<circle fill="#76C043" stroke="#000000" stroke-width="0.2835" stroke-miterlimit="10" cx="95.964" cy="54.417" r="1"/>
		<circle fill="#76C043" stroke="#000000" stroke-width="0.2835" stroke-miterlimit="10" cx="102.01" cy="47.314" r="1"/>
		<circle fill="#76C043" stroke="#000000" stroke-width="0.2835" stroke-miterlimit="10" cx="112.202" cy="49.779" r="1"/>
		<circle fill="#00A14B" stroke="#000000" stroke-width="0.2835" stroke-miterlimit="10" cx="39.909" cy="86.739" r="0.999"/>
		<circle fill="#00A14B" stroke="#000000" stroke-width="0.2835" stroke-miterlimit="10" cx="27.533" cy="83.3" r="0.999"/>
		<circle fill="#00A14B" stroke="#000000" stroke-width="0.2835" stroke-miterlimit="10" cx="27.533" cy="98.063" r="0.999"/>
		<circle fill="#00A14B" stroke="#000000" stroke-width="0.2835" stroke-miterlimit="10" cx="37.343" cy="96.062" r="0.999"/>
		<circle fill="#7F3F98" stroke="#000000" stroke-width="0.2835" stroke-miterlimit="10" cx="51.328" cy="103.481" r="0.999"/>
		<circle fill="#7F3F98" stroke="#000000" stroke-width="0.2835" stroke-miterlimit="10" cx="64.076" cy="105.398" r="0.999"/>
		<circle fill="#7F3F98" stroke="#000000" stroke-width="0.2835" stroke-miterlimit="10" cx="74.123" cy="112.417" r="0.999"/>
		<circle fill="#7F3F98" stroke="#000000" stroke-width="0.2835" stroke-miterlimit="10" cx="70.8" cy="96.548" r="0.999"/>
		<circle fill="#7F3F98" stroke="#000000" stroke-width="0.2835" stroke-miterlimit="10" cx="80.568" cy="101.951" r="0.999"/>
		<circle fill="#FFDE17" stroke="#000000" stroke-width="0.2835" stroke-miterlimit="10" cx="95.375" cy="91.812" r="0.999"/>
		<circle fill="#FFDE17" stroke="#000000" stroke-width="0.2835" stroke-miterlimit="10" cx="91.884" cy="83.015" r="0.999"/>
		<circle fill="#FFDE17" stroke="#000000" stroke-width="0.2835" stroke-miterlimit="10" cx="103.563" cy="77.937" r="0.999"/>
		<circle fill="#FFDE17" stroke="#000000" stroke-width="0.2835" stroke-miterlimit="10" cx="108.77" cy="86.848" r="0.999"/>
	</g>
</g>
</svg>
