<?xml version="1.0" encoding="utf-8"?>
<!-- Generator: Adobe Illustrator 16.0.0, SVG Export Plug-In . SVG Version: 6.00 Build 0)  -->
<!DOCTYPE svg PUBLIC "-//W3C//DTD SVG 1.1//EN" "http://www.w3.org/Graphics/SVG/1.1/DTD/svg11.dtd">
<svg version="1.1" id="Layer_1" xmlns="http://www.w3.org/2000/svg" xmlns:xlink="http://www.w3.org/1999/xlink" x="0px" y="0px"
	 width="128px" height="128px" viewBox="0 0 128 128" enable-background="new 0 0 128 128" xml:space="preserve">
<g id="XMLID_1_">
	<g>
		<path fill="#D3D062" d="M103.253,39.238c0,0,10.522,0.583,10.522,24.62c0,26.326-12.293,26.462-12.293,26.462l-37.858,0.537
			h24.793l0.138,14.289c0,0-0.138,9.774-24.931,9.774c-25.148,0-25.696-9.912-25.696-9.912l-0.137-14.963l0.137-14.836
			c0,0,0.183-3.748,3.538-7.213c3.127-3.228,7.076-3.228,7.076-3.228h30.082c0,0,4.614,0.265,8.161-3.447c3-3.128,3-7.477,3-7.477
			V39.238H103.253z"/>
		<path fill="#5093DD" d="M38.749,39.274V22.269c0,0,1.359-7.65,24.219-7.65c25.724,0,26.407,9.282,26.407,9.282v15.337h0.41v14.608
			c0,0,0,4.349-3,7.477c-3.547,3.711-8.161,3.446-8.161,3.446H48.542c0,0-3.948,0-7.076,3.229c-3.355,3.465-3.538,7.213-3.538,7.213
			l-0.137,14.836l-13.204,0.137c0,0-11.115-1.367-11.115-26.325c0-22.677,13.568-24.583,13.568-24.583h11.709V39.274z"/>
	</g>
	<g>
		<path fill="none" stroke="#000000" stroke-miterlimit="10" d="M62.293,39.274H38.749V22.269c0,0,1.359-7.65,24.219-7.65
			c25.724,0,26.407,9.282,26.407,9.282v15.337h0.41h13.468c0,0,10.522,0.583,10.522,24.62c0,26.326-12.293,26.462-12.293,26.462
			l-37.858,0.537h24.793l0.138,14.289c0,0-0.138,9.774-24.931,9.774c-25.148,0-25.696-9.912-25.696-9.912l-0.137-14.963
			l-13.204,0.138c0,0-11.115-1.369-11.115-26.326c0-22.677,13.568-24.583,13.568-24.583h11.708"/>
		<path fill="none" stroke="#080908" stroke-miterlimit="10" d="M37.792,90.046l0.137-14.836c0,0,0.183-3.748,3.538-7.213
			c3.127-3.228,7.076-3.228,7.076-3.228h30.082c0,0,4.613,0.265,8.161-3.447c3-3.128,3-7.477,3-7.477V39.238"/>
	</g>
</g>
<circle cx="49.769" cy="26.35" r="4.559"/>
<circle cx="77.805" cy="102.7" r="4.559"/>
<circle fill="none" stroke="#000000" stroke-width="14.1732" stroke-miterlimit="10" cx="63.788" cy="64.017" r="54.103"/>
<path fill="none" stroke="#000000" stroke-width="14.1732" stroke-miterlimit="10" d="M66.057,96.083"/>
<line fill="#FFFFFF" stroke="#000000" stroke-width="5.6693" stroke-miterlimit="10" x1="68.924" y1="99.7" x2="95.924" y2="72.7"/>
<line fill="#FFFFFF" stroke="#000000" stroke-width="7.0866" stroke-miterlimit="10" x1="83.549" y1="85.075" x2="121.111" y2="123.138"/>
</svg>
