<?xml version="1.0" encoding="utf-8"?>
<!-- Generator: Adobe Illustrator 16.0.0, SVG Export Plug-In . SVG Version: 6.00 Build 0)  -->
<!DOCTYPE svg PUBLIC "-//W3C//DTD SVG 1.1//EN" "http://www.w3.org/Graphics/SVG/1.1/DTD/svg11.dtd">
<svg version="1.1" id="Layer_1" xmlns="http://www.w3.org/2000/svg" xmlns:xlink="http://www.w3.org/1999/xlink" x="0px" y="0px"
	 width="1024px" height="1024px" viewBox="-256 -256 1024 1024" enable-background="new -256 -256 1024 1024" xml:space="preserve">
<g id="Grid_1_">
	<g id="Layer_1_1_">
		<g id="Grid">
			<g>
				<rect x="-256" y="-256" fill="none" stroke="#A9CCDB" stroke-miterlimit="10" width="1024" height="1024"/>
				<line fill="none" stroke="#A9CCDB" stroke-miterlimit="10" x1="-256" y1="704" x2="768" y2="704"/>
				<line fill="none" stroke="#A9CCDB" stroke-miterlimit="10" x1="-256" y1="640" x2="768" y2="640"/>
				<line fill="none" stroke="#A9CCDB" stroke-miterlimit="10" x1="-256" y1="576" x2="768" y2="576"/>
				<line fill="none" stroke="#A9CCDB" stroke-miterlimit="10" x1="-256" y1="512" x2="768" y2="512"/>
				<line fill="none" stroke="#A9CCDB" stroke-miterlimit="10" x1="-256" y1="448" x2="768" y2="448"/>
				<line fill="none" stroke="#A9CCDB" stroke-miterlimit="10" x1="-256" y1="384" x2="768" y2="384"/>
				<line fill="none" stroke="#A9CCDB" stroke-miterlimit="10" x1="-256" y1="320" x2="768" y2="320"/>
				<line fill="none" stroke="#A9CCDB" stroke-miterlimit="10" x1="-256" y1="256" x2="768" y2="256"/>
				<line fill="none" stroke="#A9CCDB" stroke-miterlimit="10" x1="-256" y1="192" x2="768" y2="192"/>
				<line fill="none" stroke="#A9CCDB" stroke-miterlimit="10" x1="-256" y1="128" x2="768" y2="128"/>
				<line fill="none" stroke="#A9CCDB" stroke-miterlimit="10" x1="-256" y1="64" x2="768" y2="64"/>
				<line fill="none" stroke="#A9CCDB" stroke-miterlimit="10" x1="-256" y1="0" x2="768" y2="0"/>
				<line fill="none" stroke="#A9CCDB" stroke-miterlimit="10" x1="-256" y1="-64" x2="768" y2="-64"/>
				<line fill="none" stroke="#A9CCDB" stroke-miterlimit="10" x1="-256" y1="-128" x2="768" y2="-128"/>
				<line fill="none" stroke="#A9CCDB" stroke-miterlimit="10" x1="-256" y1="-192" x2="768" y2="-192"/>
				<line fill="none" stroke="#A9CCDB" stroke-miterlimit="10" x1="704" y1="-256" x2="704" y2="768"/>
				<line fill="none" stroke="#A9CCDB" stroke-miterlimit="10" x1="640" y1="-256" x2="640" y2="768"/>
				<line fill="none" stroke="#A9CCDB" stroke-miterlimit="10" x1="576" y1="-256" x2="576" y2="768"/>
				<line fill="none" stroke="#A9CCDB" stroke-miterlimit="10" x1="512" y1="-256" x2="512" y2="768"/>
				<line fill="none" stroke="#A9CCDB" stroke-miterlimit="10" x1="448" y1="-256" x2="448" y2="768"/>
				<line fill="none" stroke="#A9CCDB" stroke-miterlimit="10" x1="384" y1="-256" x2="384" y2="768"/>
				<line fill="none" stroke="#A9CCDB" stroke-miterlimit="10" x1="320" y1="-256" x2="320" y2="768"/>
				<line fill="none" stroke="#A9CCDB" stroke-miterlimit="10" x1="256" y1="-256" x2="256" y2="768"/>
				<line fill="none" stroke="#A9CCDB" stroke-miterlimit="10" x1="192" y1="-256" x2="192" y2="768"/>
				<line fill="none" stroke="#A9CCDB" stroke-miterlimit="10" x1="128" y1="-256" x2="128" y2="768"/>
				<line fill="none" stroke="#A9CCDB" stroke-miterlimit="10" x1="64" y1="-256" x2="64" y2="768"/>
				<line fill="none" stroke="#A9CCDB" stroke-miterlimit="10" x1="0" y1="-256" x2="0" y2="768"/>
				<line fill="none" stroke="#A9CCDB" stroke-miterlimit="10" x1="-64" y1="-256" x2="-64" y2="768"/>
				<line fill="none" stroke="#A9CCDB" stroke-miterlimit="10" x1="-128" y1="-256" x2="-128" y2="768"/>
				<line fill="none" stroke="#A9CCDB" stroke-miterlimit="10" x1="-192" y1="-256" x2="-192" y2="768"/>
			</g>
		</g>
	</g>
</g>
<polygon fill="#231F20" points="620,639.094 620,192 428,192 428,639.094 364,639.094 364,320 172,320 172,639.094 108,639.094 
	108,64 -84,64 -84,639.094 -126.18,639.094 -126.18,-160 -160.922,-160 -160.922,639.094 -160.922,672 -126.18,672 672.922,672 
	672.922,639.094 "/>
</svg>
