<?xml version="1.0" encoding="utf-8"?>
<!-- Generator: Adobe Illustrator 16.0.0, SVG Export Plug-In . SVG Version: 6.00 Build 0)  -->
<!DOCTYPE svg PUBLIC "-//W3C//DTD SVG 1.1//EN" "http://www.w3.org/Graphics/SVG/1.1/DTD/svg11.dtd">
<svg version="1.1" id="Layer_1" xmlns="http://www.w3.org/2000/svg" xmlns:xlink="http://www.w3.org/1999/xlink" x="0px" y="0px"
	 width="1024px" height="1024px" viewBox="-256 -256 1024 1024" enable-background="new -256 -256 1024 1024" xml:space="preserve">
<g id="Grid_1_">
	<g id="Layer_1_1_">
		<g id="Grid">
			<g>
				<rect x="-256" y="-256" fill="none" stroke="#A9CCDB" stroke-miterlimit="10" width="1024" height="1024"/>
				<line fill="none" stroke="#A9CCDB" stroke-miterlimit="10" x1="-256" y1="704" x2="768" y2="704"/>
				<line fill="none" stroke="#A9CCDB" stroke-miterlimit="10" x1="-256" y1="640" x2="768" y2="640"/>
				<line fill="none" stroke="#A9CCDB" stroke-miterlimit="10" x1="-256" y1="576" x2="768" y2="576"/>
				<line fill="none" stroke="#A9CCDB" stroke-miterlimit="10" x1="-256" y1="512" x2="768" y2="512"/>
				<line fill="none" stroke="#A9CCDB" stroke-miterlimit="10" x1="-256" y1="448" x2="768" y2="448"/>
				<line fill="none" stroke="#A9CCDB" stroke-miterlimit="10" x1="-256" y1="384" x2="768" y2="384"/>
				<line fill="none" stroke="#A9CCDB" stroke-miterlimit="10" x1="-256" y1="320" x2="768" y2="320"/>
				<line fill="none" stroke="#A9CCDB" stroke-miterlimit="10" x1="-256" y1="256" x2="768" y2="256"/>
				<line fill="none" stroke="#A9CCDB" stroke-miterlimit="10" x1="-256" y1="192" x2="768" y2="192"/>
				<line fill="none" stroke="#A9CCDB" stroke-miterlimit="10" x1="-256" y1="128" x2="768" y2="128"/>
				<line fill="none" stroke="#A9CCDB" stroke-miterlimit="10" x1="-256" y1="64" x2="768" y2="64"/>
				<line fill="none" stroke="#A9CCDB" stroke-miterlimit="10" x1="-256" y1="0" x2="768" y2="0"/>
				<line fill="none" stroke="#A9CCDB" stroke-miterlimit="10" x1="-256" y1="-64" x2="768" y2="-64"/>
				<line fill="none" stroke="#A9CCDB" stroke-miterlimit="10" x1="-256" y1="-128" x2="768" y2="-128"/>
				<line fill="none" stroke="#A9CCDB" stroke-miterlimit="10" x1="-256" y1="-192" x2="768" y2="-192"/>
				<line fill="none" stroke="#A9CCDB" stroke-miterlimit="10" x1="704" y1="-256" x2="704" y2="768"/>
				<line fill="none" stroke="#A9CCDB" stroke-miterlimit="10" x1="640" y1="-256" x2="640" y2="768"/>
				<line fill="none" stroke="#A9CCDB" stroke-miterlimit="10" x1="576" y1="-256" x2="576" y2="768"/>
				<line fill="none" stroke="#A9CCDB" stroke-miterlimit="10" x1="512" y1="-256" x2="512" y2="768"/>
				<line fill="none" stroke="#A9CCDB" stroke-miterlimit="10" x1="448" y1="-256" x2="448" y2="768"/>
				<line fill="none" stroke="#A9CCDB" stroke-miterlimit="10" x1="384" y1="-256" x2="384" y2="768"/>
				<line fill="none" stroke="#A9CCDB" stroke-miterlimit="10" x1="320" y1="-256" x2="320" y2="768"/>
				<line fill="none" stroke="#A9CCDB" stroke-miterlimit="10" x1="256" y1="-256" x2="256" y2="768"/>
				<line fill="none" stroke="#A9CCDB" stroke-miterlimit="10" x1="192" y1="-256" x2="192" y2="768"/>
				<line fill="none" stroke="#A9CCDB" stroke-miterlimit="10" x1="128" y1="-256" x2="128" y2="768"/>
				<line fill="none" stroke="#A9CCDB" stroke-miterlimit="10" x1="64" y1="-256" x2="64" y2="768"/>
				<line fill="none" stroke="#A9CCDB" stroke-miterlimit="10" x1="0" y1="-256" x2="0" y2="768"/>
				<line fill="none" stroke="#A9CCDB" stroke-miterlimit="10" x1="-64" y1="-256" x2="-64" y2="768"/>
				<line fill="none" stroke="#A9CCDB" stroke-miterlimit="10" x1="-128" y1="-256" x2="-128" y2="768"/>
				<line fill="none" stroke="#A9CCDB" stroke-miterlimit="10" x1="-192" y1="-256" x2="-192" y2="768"/>
			</g>
		</g>
	</g>
</g>
<path fill="#231F20" d="M597-64c-21.719,0-40.742,11.541-51.273,28.824l-315.022-34.78C227.713-100.297,202.126-124,171-124
	c-33.137,0-60,26.862-60,60c0,22.682,12.588,42.419,31.159,52.619l-12.992,207.41C128.776,196.022,128.391,196,128,196
	c-33.137,0-60,26.863-60,60c0,16.066,6.327,30.646,16.611,41.417L13.418,410.026C9.103,409.039,4.615,408.5,0,408.5
	c-33.137,0-60,26.863-60,60s26.863,60,60,60c24.518,0,45.587-14.714,54.896-35.785l236.89,45.461
	C296.417,566.708,321.159,588.5,351,588.5c33.137,0,60-26.863,60-60s-26.863-60-60-60c-22.331,0-41.8,12.208-52.129,30.308
	l-241.03-46.253c-2.14-7.777-5.804-14.918-10.654-21.09l73.303-115.949c2.462,0.309,4.965,0.484,7.509,0.484
	c33.137,0,60-26.863,60-60c0-1.185-0.044-2.359-0.112-3.527L560.785,43.832C570.849,51.465,583.395,56,597,56
	c33.137,0,60-26.863,60-60C657-37.138,630.137-64,597-64z M168.273,211.527L181.838-4.995c16.291-2.974,30.284-12.515,39.128-25.792
	L537.567,4.169c0.287,2.09,0.675,4.146,1.17,6.161l-366.55,205.091C170.943,214.065,169.638,212.763,168.273,211.527z"/>
</svg>
